<svg width="86" height="77" viewBox="0 0 86 77" fill="none" xmlns="http://www.w3.org/2000/svg">
<g clip-path="url(#clip0_425_14)">
<path d="M2.72692 0.242414C2.32895 0.237282 1.93469 0.319325 1.57181 0.482781C1.20893 0.646237 0.88623 0.887143 0.626364 1.18859C0.366497 1.49003 0.175766 1.84471 0.0675603 2.22771C-0.040645 2.61072 -0.0637009 3.01276 1.13278e-05 3.40562L11.5757 73.678C11.7199 74.5379 12.1626 75.3195 12.8258 75.8855C13.4891 76.4516 14.3306 76.7658 15.2025 76.773H70.7359C71.3895 76.7814 72.0244 76.5548 72.5249 76.1343C73.0254 75.7139 73.3583 75.1276 73.4628 74.4824L85.0658 3.43289C85.1295 3.04003 85.1065 2.63798 84.9983 2.25498C84.89 1.87198 84.6993 1.5173 84.4394 1.21586C84.1796 0.914413 83.8569 0.673506 83.494 0.51005C83.1311 0.346594 82.7369 0.264551 82.3389 0.269684L2.72692 0.242414ZM51.4703 51.031H33.7455L28.9461 25.9708H55.7652L51.4703 51.031Z" fill="#2684FF"/>
<path d="M81.3571 25.9707H55.7652L51.4703 51.031H33.7454L12.8164 75.8867C13.4798 76.4603 14.3255 76.7793 15.2024 76.7866H70.7495C71.4031 76.795 72.038 76.5683 72.5385 76.1479C73.039 75.7275 73.3719 75.1412 73.4764 74.496L81.3571 25.9707Z" fill="url(#paint0_linear_425_14)"/>
</g>
<defs>
<linearGradient id="paint0_linear_425_14" x1="87.2745" y1="32.9788" x2="44.9802" y2="66.0017" gradientUnits="userSpaceOnUse">
<stop offset="0.18" stop-color="#0052CC"/>
<stop offset="1" stop-color="#2684FF"/>
</linearGradient>
<clipPath id="clip0_425_14">
<rect width="86" height="77" fill="white"/>
</clipPath>
</defs>
</svg>
